<?xml version="1.0" encoding="UTF-8"?>
<!-- Generator: Adobe Illustrator 27.7.0, SVG Export Plug-In . SVG Version: 6.00 Build 0)  -->
<svg version="1.1" id="logo" xmlns="http://www.w3.org/2000/svg" xmlns:xlink="http://www.w3.org/1999/xlink" x="0px" y="0px" viewBox="0 0 500 500" style="enable-background:new 0 0 500 500;" xml:space="preserve">
<style type="text/css">
	.st0{fill:#FFD700;}
</style>
<g>
	<path d="M468.1,331.1c-21.6,38.5-52.8,57-60.1,61.1c-30.1,17-58,20.8-76.2,20.8c-11.8,0-23.5,0-35.3,0c-2.1-4.2-4.3-8.5-6.4-12.8   c-2.6-5.4-5.2-10.7-7.6-16c16.9,0,33.8,0,50.6,0c11.5-0.9,53.6-5.7,88.2-40.7c8.2-8.3,36.8-38.2,39.1-85.5   c2.2-43.6-19.3-74.1-25.8-83.1c-27.7-38.1-66.9-49.4-77.8-52.7c-16.9-5.2-31.7-6.8-42.3-7.2c-13.7,0-27.4,0-41.1,0   c-4.9-9.4-9.8-18.8-14.7-28.1c23,0,46,0,69,0c14.8,1.5,36.9,5.4,61.4,16.5c13.9,6.3,34.3,16.2,53.9,36.5   c5.9,6.1,28.1,29.9,39.1,68.8c9.9,34.9,5.6,63.5,3.9,72.6C484.4,290.4,480.2,309.6,468.1,331.1z"/>
	<path d="M298.7,356.8c-9.4,0-18.9,0-28.3,0c-34.3-71.7-68.7-143.4-103-215.2c-42.6,90.5-85.3,181-127.9,271.5c-8.1,0-16.8,0-28,0   c52-108.8,104-217.5,156-326.2C211.1,176.9,254.9,266.8,298.7,356.8z"/>
	<path class="st0" d="M109.2,335.6c3.8-9.8,7.7-19.6,11.5-29.4c30,0,60.1,0,90.1,0c4.5,9.8,8.9,19.6,13.4,29.4   C185.9,335.6,147.5,335.6,109.2,335.6z"/>
	<path class="st0" d="M244.7,115c-9.8,0-19.6,0-29.4,0c-5.1-9.4-10.2-18.8-15.3-28.1c10.4,0,20.9,0,31.3,0   C235.8,96.3,240.2,105.6,244.7,115z"/>
</g>
<script xmlns=""/></svg>